<?xml version="1.0" encoding="utf-8"?>
<!-- Generator: Adobe Illustrator 23.0.0, SVG Export Plug-In . SVG Version: 6.00 Build 0)  -->
<svg version="1.1" id="Capa_1" xmlns="http://www.w3.org/2000/svg" xmlns:xlink="http://www.w3.org/1999/xlink" x="0px" y="0px"
	 viewBox="0 0 72 72" style="enable-background:new 0 0 72 72;" xml:space="preserve">
<style type="text/css">
	.st0{fill-rule:evenodd;clip-rule:evenodd;fill:#C1C1C0;}
</style>
<g>
	<path class="st0" d="M61.5,10.5C55,4,46,0,36,0S17,4,10.5,10.5C4,17,0,26,0,36s4,19,10.5,25.5C17,68,26,72,36,72
		c19.9,0,36-16.1,36-36C72,26,68,17,61.5,10.5z M60,43.6c0,0.1,0,0.1,0,0.2v0.1c-0.1,0.1-0.1,0.1-0.1,0.2v0.1
		c-0.1,0-0.1,0.1-0.1,0.1c-0.1,0-0.1,0.1-0.1,0.1l-0.1,0.1c-0.1,0-0.1,0.1-0.1,0.1l-0.1,0.1l-0.1,0.1l-0.1,0.1
		c0,0.1-0.1,0.1-0.1,0.1L37,59.7c-0.3,0.2-0.7,0.3-1.1,0.3c-0.4,0-0.8-0.1-1.1-0.3L12.9,45.1c0-0.1-0.1-0.1-0.1-0.1l-0.3-0.3
		c-0.1,0-0.1-0.1-0.1-0.1l-0.1-0.1c-0.1,0-0.1-0.1-0.1-0.1c-0.1,0-0.1-0.1-0.1-0.1v-0.1C12,44.1,12,44,12,44v-0.1c0-0.1,0-0.1,0-0.2
		V28.3c0-0.1,0-0.1,0-0.2V28c0.1,0,0.1-0.1,0.1-0.1v-0.1c0.1,0,0.1-0.1,0.1-0.1c0.1,0,0.1-0.1,0.1-0.1l0.1-0.1
		c0.1,0,0.1-0.1,0.1-0.1l0.1-0.1l0.1-0.1l0.1-0.1c0-0.1,0.1-0.1,0.1-0.1l21.9-14.7c0.7-0.5,1.6-0.5,2.3,0L59,27
		c0,0.1,0.1,0.1,0.1,0.1l0.3,0.3c0.1,0,0.1,0.1,0.1,0.1l0.1,0.1c0.1,0,0.1,0.1,0.1,0.1c0.1,0,0.1,0.1,0.1,0.1v0.1
		c0.1,0,0.1,0,0.1,0.1v0.1c0.1,0.1,0.1,0.2,0.1,0.3V43.6z"/>
	<polygon class="st0" points="54.2,43.3 38.1,54.1 38.1,44.5 47,38.5 	"/>
	<polygon class="st0" points="33.9,44.5 33.9,54.1 17.8,43.3 25,38.5 	"/>
	<polygon class="st0" points="21.3,36 16.1,39.5 16.1,32.5 	"/>
	<polygon class="st0" points="43.3,36 36,40.9 28.7,36 36,31.1 	"/>
	<polygon class="st0" points="55.9,32.5 55.9,39.5 50.7,36 	"/>
	<polygon class="st0" points="54.3,28.7 47,33.5 38.1,27.5 38.1,17.9 	"/>
	<polygon class="st0" points="33.9,17.9 33.9,27.5 25,33.5 17.8,28.7 	"/>
</g>
</svg>
